<svg width="36" height="36" viewBox="0 0 36 36" fill="none" xmlns="http://www.w3.org/2000/svg">
<rect width="36" height="36" rx="12" fill="white"/>
<rect x="0.5" y="0.5" width="35" height="35" rx="11.5" stroke="#C56EFD" stroke-opacity="0.5"/>
<path d="M21.3334 9.83333H23C23.4421 9.83333 23.866 10.0089 24.1786 10.3215C24.4911 10.634 24.6667 11.058 24.6667 11.5V23.1667C24.6667 23.6087 24.4911 24.0326 24.1786 24.3452C23.866 24.6577 23.4421 24.8333 23 24.8333H13C12.558 24.8333 12.1341 24.6577 11.8215 24.3452C11.509 24.0326 11.3334 23.6087 11.3334 23.1667V11.5C11.3334 11.058 11.509 10.634 11.8215 10.3215C12.1341 10.0089 12.558 9.83333 13 9.83333H14.6667" stroke="#C56EFD" stroke-width="2" stroke-linecap="round" stroke-linejoin="round"/>
<path d="M20.5 8.16667H15.5C15.0397 8.16667 14.6666 8.53977 14.6666 9.00001V10.6667C14.6666 11.1269 15.0397 11.5 15.5 11.5H20.5C20.9602 11.5 21.3333 11.1269 21.3333 10.6667V9.00001C21.3333 8.53977 20.9602 8.16667 20.5 8.16667Z" stroke="#C56EFD" stroke-width="2" stroke-linecap="round" stroke-linejoin="round"/>
</svg>
